<svg width="28" height="29" viewBox="0 0 28 29" fill="none" xmlns="http://www.w3.org/2000/svg">
<g id="Shopping Cart" clip-path="url(#clip0_1_373)">
<path id="Vector" d="M10.3678 25.3889C11.3343 25.3889 12.1178 24.6054 12.1178 23.6389C12.1178 22.6724 11.3343 21.8889 10.3678 21.8889C9.4013 21.8889 8.6178 22.6724 8.6178 23.6389C8.6178 24.6054 9.4013 25.3889 10.3678 25.3889Z" fill="#3F3F3F"/>
<path id="Vector_2" d="M21 25.3889C21.9665 25.3889 22.75 24.6054 22.75 23.6389C22.75 22.6724 21.9665 21.8889 21 21.8889C20.0335 21.8889 19.25 22.6724 19.25 23.6389C19.25 24.6054 20.0335 25.3889 21 25.3889Z" fill="#3F3F3F"/>
<path id="Vector_3" d="M25.7289 4.67664C25.6566 4.58742 25.5653 4.51534 25.4618 4.46558C25.3582 4.41583 25.2449 4.38962 25.13 4.38886H8.93671L9.44227 5.94442H24.1112L22.0345 15.2778H10.3678L6.81338 4.02331C6.77493 3.90389 6.70817 3.79554 6.61878 3.70751C6.52939 3.61948 6.42004 3.55437 6.30005 3.51775L3.11116 2.53775C3.0131 2.50762 2.91007 2.4971 2.80795 2.50679C2.70583 2.51647 2.60662 2.54618 2.51598 2.59421C2.33292 2.6912 2.1959 2.85695 2.13505 3.05498C2.07419 3.253 2.0945 3.4671 2.1915 3.65015C2.2885 3.83321 2.45424 3.97023 2.65227 4.03109L5.44449 4.88664L9.01449 16.1644L7.73893 17.2066L7.63782 17.3078C7.32231 17.6714 7.14347 18.1336 7.13211 18.6149C7.12075 19.0962 7.27759 19.5663 7.5756 19.9444C7.78759 20.2022 8.05697 20.4068 8.3622 20.5419C8.66742 20.6769 9.00002 20.7387 9.33338 20.7222H22.3145C22.5208 20.7222 22.7186 20.6403 22.8645 20.4944C23.0103 20.3485 23.0923 20.1507 23.0923 19.9444C23.0923 19.7381 23.0103 19.5403 22.8645 19.3944C22.7186 19.2486 22.5208 19.1666 22.3145 19.1666H9.20893C9.11937 19.1636 9.03211 19.1375 8.95558 19.0908C8.87905 19.0442 8.81584 18.9786 8.77205 18.9005C8.72827 18.8223 8.70538 18.7341 8.70562 18.6445C8.70585 18.5549 8.72919 18.4668 8.77338 18.3889L10.6478 16.8333H22.6567C22.8365 16.8377 23.0123 16.7797 23.1541 16.669C23.2959 16.5584 23.395 16.4021 23.4345 16.2266L25.9 5.33775C25.9237 5.2218 25.9206 5.10198 25.8909 4.98741C25.8613 4.87285 25.8059 4.76656 25.7289 4.67664Z" fill="#3F3F3F"/>
</g>
<defs>
<clipPath id="clip0_1_373">
<rect width="28" height="28" fill="white" transform="translate(0 0.5)"/>
</clipPath>
</defs>
</svg>
